<svg width="1200" height="630" viewBox="0 0 1200 630" xmlns="http://www.w3.org/2000/svg">
  <rect width="1200" height="630" fill="#0d1526"/>
  <line x1="0" y1="210" x2="1200" y2="210" stroke="#ffffff" stroke-opacity="0.04" stroke-width="1"/>
  <line x1="0" y1="420" x2="1200" y2="420" stroke="#ffffff" stroke-opacity="0.04" stroke-width="1"/>
  <line x1="300" y1="0" x2="300" y2="630" stroke="#ffffff" stroke-opacity="0.04" stroke-width="1"/>
  <line x1="600" y1="0" x2="600" y2="630" stroke="#ffffff" stroke-opacity="0.04" stroke-width="1"/>
  <line x1="900" y1="0" x2="900" y2="630" stroke="#ffffff" stroke-opacity="0.04" stroke-width="1"/>
  <rect x="0" y="0" width="1200" height="6" fill="url(#topbar)"/>
  <defs>
    <linearGradient id="topbar" x1="0" y1="0" x2="1200" y2="0" gradientUnits="userSpaceOnUse">
      <stop offset="0%" stop-color="#00FFD1"/>
      <stop offset="50%" stop-color="#00B4FF"/>
      <stop offset="100%" stop-color="#9D4EDD"/>
    </linearGradient>
    <linearGradient id="namegrad" x1="0" y1="0" x2="500" y2="0" gradientUnits="userSpaceOnUse">
      <stop offset="0%" stop-color="#00FFD1"/>
      <stop offset="100%" stop-color="#00B4FF"/>
    </linearGradient>
  </defs>
  <circle cx="150" cy="315" r="220" fill="#00FFD1" fill-opacity="0.03"/>
  <circle cx="1050" cy="315" r="180" fill="#9D4EDD" fill-opacity="0.04"/>
  <circle cx="150" cy="200" r="64" fill="none" stroke="#00FFD1" stroke-opacity="0.3" stroke-width="1.5"/>
  <circle cx="150" cy="200" r="54" fill="#0d2035"/>
  <text x="150" y="212" text-anchor="middle" font-family="Arial, sans-serif" font-size="28" font-weight="700" fill="url(#namegrad)">SV</text>
  <text x="240" y="180" font-family="Arial, sans-serif" font-size="56" font-weight="700" fill="#ffffff">Sugandha Vashishtha</text>
  <text x="240" y="226" font-family="Arial, sans-serif" font-size="26" font-weight="400" fill="#00FFD1">Cloud &amp; Site Reliability Engineer</text>
  <line x1="90" y1="268" x2="1110" y2="268" stroke="#ffffff" stroke-opacity="0.08" stroke-width="1"/>
  <rect x="90" y="290" width="352" height="46" rx="23" fill="#00B4FF" fill-opacity="0.12" stroke="#00B4FF" stroke-opacity="0.35" stroke-width="1"/>
  <text x="266" y="318" text-anchor="middle" font-family="Arial, sans-serif" font-size="20" font-weight="600" fill="#00B4FF">Tech Mahindra · Jul 2025–Present</text>
  <rect x="458" y="290" width="200" height="46" rx="23" fill="#00FFD1" fill-opacity="0.08" stroke="#00FFD1" stroke-opacity="0.25" stroke-width="1"/>
  <text x="558" y="318" text-anchor="middle" font-family="Arial, sans-serif" font-size="20" font-weight="400" fill="#00FFD1">📍 Noida, India</text>
  <rect x="674" y="290" width="180" height="46" rx="23" fill="#9D4EDD" fill-opacity="0.12" stroke="#9D4EDD" stroke-opacity="0.3" stroke-width="1"/>
  <text x="764" y="318" text-anchor="middle" font-family="Arial, sans-serif" font-size="20" font-weight="400" fill="#9D4EDD">9+ Years Exp</text>

  <rect x="90" y="358" width="100" height="40" rx="8" fill="#ffffff" fill-opacity="0.05" stroke="#ffffff" stroke-opacity="0.1" stroke-width="1"/>
  <text x="140" y="383" text-anchor="middle" font-family="Arial, sans-serif" font-size="18" fill="#94a3b8">AWS</text>
  <rect x="202" y="358" width="108" height="40" rx="8" fill="#ffffff" fill-opacity="0.05" stroke="#ffffff" stroke-opacity="0.1" stroke-width="1"/>
  <text x="256" y="383" text-anchor="middle" font-family="Arial, sans-serif" font-size="18" fill="#94a3b8">Azure</text>
  <rect x="322" y="358" width="136" height="40" rx="8" fill="#ffffff" fill-opacity="0.05" stroke="#ffffff" stroke-opacity="0.1" stroke-width="1"/>
  <text x="390" y="383" text-anchor="middle" font-family="Arial, sans-serif" font-size="18" fill="#94a3b8">Dynatrace</text>
  <rect x="470" y="358" width="152" height="40" rx="8" fill="#ffffff" fill-opacity="0.05" stroke="#ffffff" stroke-opacity="0.1" stroke-width="1"/>
  <text x="546" y="383" text-anchor="middle" font-family="Arial, sans-serif" font-size="18" fill="#94a3b8">Kubernetes</text>
  <rect x="634" y="358" width="140" height="40" rx="8" fill="#ffffff" fill-opacity="0.05" stroke="#ffffff" stroke-opacity="0.1" stroke-width="1"/>
  <text x="704" y="383" text-anchor="middle" font-family="Arial, sans-serif" font-size="18" fill="#94a3b8">Terraform</text>
  <rect x="786" y="358" width="100" height="40" rx="8" fill="#ffffff" fill-opacity="0.05" stroke="#ffffff" stroke-opacity="0.1" stroke-width="1"/>
  <text x="836" y="383" text-anchor="middle" font-family="Arial, sans-serif" font-size="18" fill="#94a3b8">Linux</text>
  <rect x="898" y="358" width="80" height="40" rx="8" fill="#ffffff" fill-opacity="0.05" stroke="#ffffff" stroke-opacity="0.1" stroke-width="1"/>
  <text x="938" y="383" text-anchor="middle" font-family="Arial, sans-serif" font-size="18" fill="#94a3b8">SRE</text>
  <rect x="990" y="358" width="80" height="40" rx="8" fill="#ffffff" fill-opacity="0.05" stroke="#ffffff" stroke-opacity="0.1" stroke-width="1"/>
  <text x="1030" y="383" text-anchor="middle" font-family="Arial, sans-serif" font-size="18" fill="#94a3b8">KQL</text>

  <rect x="90" y="416" width="400" height="46" rx="8" fill="#FF9900" fill-opacity="0.1" stroke="#FF9900" stroke-opacity="0.3" stroke-width="1"/>
  <text x="290" y="444" text-anchor="middle" font-family="Arial, sans-serif" font-size="19" font-weight="600" fill="#FF9900">✅ AWS Solutions Architect – Associate</text>
  <rect x="506" y="416" width="330" height="46" rx="8" fill="#FF9900" fill-opacity="0.1" stroke="#FF9900" stroke-opacity="0.3" stroke-width="1"/>
  <text x="671" y="444" text-anchor="middle" font-family="Arial, sans-serif" font-size="19" font-weight="600" fill="#FF9900">✅ AWS Cloud Practitioner</text>

  <line x1="90" y1="488" x2="1110" y2="488" stroke="#ffffff" stroke-opacity="0.06" stroke-width="1"/>
  <text x="90" y="524" font-family="Arial, monospace" font-size="20" fill="#475569">sugandha.dev</text>
  <text x="1110" y="524" text-anchor="end" font-family="Arial, sans-serif" font-size="20" fill="#334155">Open to SRE · Cloud · DevOps Roles</text>
  <circle cx="1122" cy="560" r="8" fill="#00FFD1" fill-opacity="0.6"/>
  <circle cx="1138" cy="560" r="8" fill="#00B4FF" fill-opacity="0.5"/>
  <circle cx="1154" cy="560" r="8" fill="#9D4EDD" fill-opacity="0.4"/>
</svg>
